<?xml version="1.0" standalone="no"?>
<!DOCTYPE svg PUBLIC "-//W3C//DTD SVG 20010904//EN"
 "http://www.w3.org/TR/2001/REC-SVG-20010904/DTD/svg10.dtd">
<svg version="1.0" xmlns="http://www.w3.org/2000/svg"
 width="2603.000000pt" height="2603.000000pt" viewBox="0 0 2603.000000 2603.000000"
 preserveAspectRatio="xMidYMid meet">

<g transform="translate(0.000000,2603.000000) scale(0.100000,-0.100000)"
fill="#000000" stroke="none">
<path d="M12655 22993 c-7285 -14914 -7872 -16118 -7856 -16125 9 -4 1812
-335 4008 -737 l3992 -730 6498 1159 c3574 638 6537 1167 6586 1176 l87 16 0
6704 c0 3687 -3 6704 -6 6704 -9 0 -13106 2119 -13136 2126 -27 5 -29 1 -173
-293z m2436 -1883 c30 -6 387 -57 794 -115 407 -58 756 -107 775 -110 19 -3
82 -12 140 -20 58 -8 184 -26 280 -40 96 -15 207 -30 245 -35 39 -6 102 -15
140 -20 39 -6 102 -15 140 -20 95 -13 524 -74 700 -100 33 -5 78 -11 100 -14
120 -17 478 -68 530 -76 33 -5 96 -14 140 -20 44 -6 107 -15 140 -20 33 -6
204 -30 380 -55 176 -25 336 -47 355 -50 195 -29 679 -99 730 -105 73 -9 599
-84 700 -99 36 -6 83 -13 105 -16 33 -4 579 -83 695 -100 19 -3 148 -21 285
-40 138 -19 277 -39 310 -44 33 -6 96 -15 140 -21 44 -6 107 -15 140 -20 173
-25 603 -87 708 -101 37 -5 100 -14 140 -19 39 -6 101 -15 137 -19 117 -16
285 -42 298 -46 9 -3 12 -283 12 -1351 l0 -1347 -102 7 c-57 4 -170 11 -253
16 -82 5 -220 14 -305 20 -85 5 -225 14 -310 20 -85 5 -330 21 -545 35 -421
28 -598 39 -855 55 -91 5 -191 13 -222 16 l-58 7 0 -4405 c0 -3513 -3 -4407
-12 -4415 -7 -5 -60 -17 -118 -26 -58 -9 -170 -29 -250 -43 -80 -14 -170 -29
-200 -34 -30 -5 -82 -14 -115 -20 -33 -6 -85 -15 -115 -20 -30 -5 -120 -21
-200 -35 -80 -14 -194 -35 -255 -45 -60 -10 -175 -30 -255 -45 -236 -41 -491
-86 -550 -95 -55 -9 -418 -72 -520 -91 -30 -5 -82 -14 -115 -19 -33 -6 -121
-21 -195 -34 -74 -14 -138 -21 -142 -17 -5 4 -9 2151 -10 4771 l-3 4765 -105
6 c-58 4 -181 12 -273 18 -92 6 -448 29 -790 51 -342 22 -689 44 -772 50 -82
6 -325 22 -540 35 -214 14 -493 32 -620 40 -126 8 -299 19 -384 24 -106 7
-157 14 -163 23 -9 15 -11 3402 -1 3411 9 9 30 9 94 -3z"/>
<path d="M3184 21663 c3 -16 8 -156 11 -313 3 -157 8 -366 10 -465 3 -99 7
-290 10 -425 3 -135 7 -337 10 -450 5 -202 10 -456 20 -885 3 -121 7 -321 10
-445 3 -124 8 -313 10 -420 19 -841 40 -1745 50 -2160 7 -301 15 -658 20 -880
8 -354 15 -692 20 -880 3 -102 7 -297 10 -435 3 -137 7 -333 10 -435 13 -518
17 -719 18 -867 0 -125 3 -163 13 -163 20 0 62 62 83 121 10 30 28 73 40 96
11 23 32 71 45 106 13 36 32 76 40 89 9 13 25 50 36 82 11 32 28 72 39 90 10
17 22 42 26 56 4 14 27 70 52 125 24 55 57 129 73 165 16 36 49 110 74 166 25
55 46 105 46 111 0 5 15 39 34 74 18 35 39 82 46 104 7 22 23 58 35 80 13 22
26 51 30 65 4 14 25 64 46 113 21 48 57 129 80 180 22 50 55 126 74 167 83
185 115 257 115 265 0 4 15 37 34 74 18 36 39 84 46 106 7 22 22 58 35 80 12
22 28 58 35 80 7 22 26 66 41 97 16 31 37 78 48 105 10 26 42 100 71 163 29
63 61 138 71 165 11 28 29 67 40 87 11 20 29 63 39 94 11 32 31 76 44 98 13
23 29 59 36 81 7 22 22 58 35 80 12 22 26 51 30 65 4 14 27 70 52 125 24 55
59 134 78 175 18 41 51 116 74 165 23 50 41 95 41 101 0 6 16 41 35 77 19 36
35 71 35 77 0 7 17 49 39 94 21 44 42 92 46 106 4 14 18 45 31 70 13 25 37 77
53 115 16 39 46 108 66 155 21 47 48 112 61 145 14 33 35 80 48 105 14 25 36
76 50 114 15 38 31 75 36 81 6 7 19 38 30 70 11 32 31 77 44 99 13 23 27 52
31 66 7 24 50 126 120 280 70 154 113 256 120 280 4 14 18 43 31 66 13 22 33
67 44 98 11 32 28 72 39 90 10 17 22 42 26 56 4 14 27 70 52 125 69 157 98
222 148 335 50 113 79 178 148 335 25 55 48 111 52 125 4 14 18 43 30 65 13
22 28 58 35 80 7 22 25 63 41 91 16 28 29 58 29 66 0 8 18 51 40 96 22 44 40
84 40 89 0 4 18 48 41 98 23 49 56 124 74 165 19 41 52 116 74 166 23 50 41
94 41 98 0 3 18 44 40 89 23 46 42 96 43 112 l2 29 -1965 317 c-1081 174
-1982 320 -2003 323 -38 6 -39 6 -33 -21z"/>
</g>
</svg>
