<?xml version="1.0" standalone="no"?>
<!DOCTYPE svg PUBLIC "-//W3C//DTD SVG 20010904//EN"
 "http://www.w3.org/TR/2001/REC-SVG-20010904/DTD/svg10.dtd">
<svg version="1.0" xmlns="http://www.w3.org/2000/svg"
 width="500.000000pt" height="108.000000pt" viewBox="0 0 500.000000 108.000000"
 preserveAspectRatio="xMidYMid meet">

<g transform="translate(0.000000,108.000000) scale(0.100000,-0.100000)"
fill="#000000" stroke="none">
<path d="M1835 998 c-5 -19 -115 -661 -115 -676 0 -10 299 -12 1477 -10 l1478
3 52 330 c29 182 52 338 53 348 0 16 -76 17 -1470 17 -1168 0 -1471 -3 -1475
-12z m554 -88 c37 -19 63 -55 75 -102 7 -31 10 -29 -99 -48 -59 -10 -59 -10
-83 20 -18 24 -31 30 -60 30 -86 0 -144 -79 -146 -198 -1 -55 2 -66 23 -83 47
-38 171 -17 184 31 5 18 1 20 -50 20 l-55 0 7 46 c11 78 3 74 146 74 71 0 129
-1 129 -3 0 -16 -41 -220 -45 -228 -11 -18 -119 -66 -173 -78 -257 -54 -395
84 -322 322 35 111 129 197 239 217 67 13 188 2 230 -20z m314 13 c3 -5 -9
-85 -26 -180 -35 -197 -32 -217 26 -228 39 -8 90 14 106 43 5 10 21 85 35 167
15 83 29 162 32 178 6 27 6 27 90 27 50 0 84 -4 84 -10 0 -6 -14 -87 -30 -181
-34 -190 -57 -248 -117 -298 -55 -46 -129 -65 -230 -58 -135 8 -193 59 -193
169 0 49 41 321 55 366 5 13 160 18 168 5z m755 -245 c27 -139 52 -246 55
-238 3 8 22 110 41 225 20 116 39 223 42 238 l6 29 186 -4 c150 -3 193 -7 218
-20 98 -53 56 -235 -62 -272 -21 -6 -21 -7 7 -37 16 -17 38 -61 51 -100 12
-38 25 -69 28 -69 3 0 11 33 18 73 7 39 27 152 44 250 l32 179 165 -4 c185 -3
214 -12 258 -77 65 -96 22 -309 -80 -396 -68 -58 -108 -65 -382 -65 l-242 0
-28 78 c-42 116 -53 134 -78 130 -19 -3 -24 -13 -34 -73 -7 -38 -15 -85 -18
-102 l-6 -33 -174 0 -175 0 0 29 c0 58 -4 61 -100 61 l-88 0 -19 -45 -18 -45
-88 0 c-49 0 -87 4 -85 9 2 5 68 126 147 270 l144 261 92 0 92 0 51 -252z"/>
<path d="M3750 798 c0 -7 -3 -30 -6 -50 l-7 -38 39 1 c59 2 88 12 101 39 21
42 1 60 -67 60 -41 0 -60 -4 -60 -12z"/>
<path d="M4249 663 l-24 -138 43 -3 c52 -4 85 15 108 60 18 35 30 133 21 170
-8 29 -44 48 -91 48 l-33 0 -24 -137z"/>
<path d="M3246 687 c-20 -43 -36 -80 -36 -83 0 -2 22 -4 49 -4 l49 0 -5 43
c-3 23 -9 60 -13 82 l-7 40 -37 -78z"/>
<path d="M4444 255 c-4 -14 -34 -175 -34 -186 0 -5 72 -9 159 -9 153 0 160 1
166 21 l7 21 22 -21 c33 -31 96 -28 135 5 36 30 38 40 10 49 -14 5 -27 0 -40
-14 -22 -24 -40 -26 -57 -9 -20 20 -14 67 13 94 24 24 26 25 54 8 53 -31 86 9
36 42 -37 24 -100 13 -138 -24 -21 -21 -31 -42 -34 -76 l-6 -46 -48 0 c-27 0
-49 1 -49 3 0 1 6 35 14 75 7 39 13 72 12 73 0 0 -13 2 -29 3 -29 2 -32 -2
-42 -74 -12 -80 -11 -80 -67 -80 l-51 0 7 40 c20 126 20 115 -9 115 -15 0 -29
-4 -31 -10z"/>
</g>
</svg>
